<?xml version="1.0" encoding="UTF-8"?><svg id="_イヤー_2" xmlns="http://www.w3.org/2000/svg" viewBox="0 0 225.98 40"><g id="_イヤー_1-2"><g><g><polygon points="167.55 10.17 167.55 13.4 169.16 13.4 169.16 26.6 167.55 26.6 167.55 29.83 182.12 29.83 182.12 24.79 178.89 24.79 178.89 26.41 173 26.41 173 21.63 177.53 21.63 177.53 22.84 180.77 22.84 180.77 16.99 177.53 16.99 177.53 18.2 173 18.2 173 13.59 178.89 13.59 178.89 15.21 182.12 15.21 182.12 10.17 167.55 10.17"/><path d="M62.93,16.44v-6.27h3.76v3.43l-3.76,2.85Z"/><path d="M162.62,13.04c-1.41-1.96-3.26-2.87-5.94-2.87h-8.72v3.23h1.62v13.2h-1.62v3.23h8.72c2.68,0,4.53-.91,5.94-2.87,1.22-1.69,1.24-3.7,1.24-6.96s-.03-5.28-1.24-6.96Zm-3.4,12.15c-.64,.8-1.57,1.22-2.87,1.22h-2.93V13.59h2.93c1.3,0,2.24,.41,2.87,1.22,.72,.86,.8,2.1,.8,5.19s-.08,4.34-.8,5.19Z"/><path d="M143.83,26.6l-6-16.44h-3.01l-5.98,16.44h-1.18v3.23h7.04v-3.23h-1.94l.87-2.61h5.46l.83,2.61h-1.96v3.23h7.04v-3.23h-1.18Zm-7.41-10.64l1.61,4.79h-3.28l1.67-4.79Z"/><path d="M106.37,26.6l-6-16.44h-3.01l-5.98,16.44h-1.18v3.23h7.04v-3.23h-1.94l.87-2.61h5.46l.83,2.61h-1.96v3.23h7.04v-3.23h-1.18Zm-7.41-10.64l1.61,4.79h-3.28l1.67-4.79Z"/><path d="M75.62,21.08l-2.27-.22c-1.08-.11-1.49-.53-1.49-1.24s.61-1.38,2.04-1.38c.82,0,1.63,.09,2.32,.36v.95h3.23v-2.59h0c-1.38-1.27-3.23-1.69-5.5-1.69-2.93,0-5.55,1.57-5.55,4.59,0,2.65,1.6,3.78,4.14,4.03l2.32,.22c1.16,.11,1.52,.61,1.52,1.33,0,1.08-1.3,1.49-2.54,1.49-.64,0-1.43-.06-2.21-.34v-1.25h-3.23v3.23c1.64,1.24,3.42,1.43,5.39,1.43,3.4,0,6.11-1.52,6.11-4.7,0-2.46-1.44-3.95-4.28-4.23Z"/><polygon points="224.34 13.4 225.98 13.4 225.98 10.17 218.94 10.17 218.94 13.4 220.34 13.4 218.19 18.09 216.02 13.4 217.39 13.4 217.39 10.17 210.35 10.17 210.35 13.4 211.99 13.4 216.26 21.77 216.26 26.6 214.64 26.6 214.64 29.83 221.69 29.83 221.69 26.6 220.07 26.6 220.07 21.77 224.34 13.4"/><polygon points="207.45 13.4 207.45 10.17 202.05 10.17 196.94 20.8 191.8 10.17 186.4 10.17 186.4 13.4 188.02 13.4 188.02 26.6 186.4 26.6 186.4 29.83 193.47 29.83 193.47 26.6 191.86 26.6 191.86 18.37 195.64 25.83 198.24 25.83 201.99 18.37 201.99 26.6 200.38 26.6 200.38 29.83 207.45 29.83 207.45 26.6 205.83 26.6 205.83 13.4 207.45 13.4"/><path d="M51.36,18.89v3.23h2.92v3.11c-.06,.08-.12,.15-.18,.23-.61,.69-1.55,1.11-2.73,1.11-1.05,0-1.88-.39-2.46-1.02-.72-.83-.94-1.8-.94-5.55s.22-4.7,.94-5.52c.58-.64,1.41-1.05,2.46-1.05,.93,0,1.67,.23,2.24,.67v2.2h3.84v-3.38c-1.2-1.72-3.18-2.92-6.08-2.92-2.24,0-3.9,.75-5.25,2.07-1.96,1.96-1.99,4.17-1.99,7.93s.03,5.97,1.99,7.93c1.35,1.33,3.01,2.07,5.25,2.07,2.1,0,3.92-.53,5.55-2.24,.53-.55,.92-1.12,1.2-1.76v-7.11h-6.76Z"/><path d="M117.97,10c-2.27,0-3.92,.75-5.28,2.07-1.96,1.96-1.99,4.17-1.99,7.93s.03,5.97,1.99,7.93c1.35,1.33,3.01,2.07,5.28,2.07,2.58,0,4.75-1.05,6.06-3.12v-3.1h-3.84v2c-.54,.49-1.27,.79-2.22,.79-1.05,0-1.91-.39-2.46-1.02-.72-.83-.97-1.8-.97-5.55s.25-4.72,.97-5.55c.55-.64,1.41-1.02,2.46-1.02,.95,0,1.68,.3,2.22,.8v1.99h3.84v-3.11c-1.3-2.06-3.46-3.11-6.06-3.11Z"/></g><path d="M17.39,25.69H7.42c-.84,0-1.12-.28-1.12-1.12,0-1.02,3.73-2.1,7.99-2.27h0c4.57-.32,8.14-3.2,8.14-6.7v-1.01c0-3.72-4.02-6.73-8.98-6.73h-1.18v-.28c0-.93,.75-1.68,1.68-1.68h2.24c1.63,0,2.95-1.32,2.95-2.95s-1.32-2.95-2.95-2.95c-2.73,0-4.94,2.51-4.94,5.61v2.24h-1.17C5.14,7.85,1.12,10.87,1.12,14.59v1.01c0,3.03,2.68,5.6,6.35,6.44-3.68,.77-6.35,3.12-6.35,5.9v.56c0,1.48,.96,2.74,2.29,3.19-1.96,.36-3.41,1.68-3.41,3.26v.56c0,2.48,3.52,4.49,7.85,4.49h6.17c5.58,0,10.1-3.27,10.1-7.29v-1.4c0-3.1-3.01-5.61-6.73-5.61ZM9.26,12.45c0-2.48,1.13-3.93,2.52-3.93s2.52,1.45,2.52,3.93v5.83c0,2.48-1.13,3.37-2.52,3.37s-2.52-.89-2.52-3.37v-5.83Zm4.77,26.42h-5.39c-3.1,0-5.61-1.51-5.61-3.37v-.56c0-1.55,1.26-2.81,2.8-2.81h11c1.55,0,2.81,1.26,2.81,2.81v.56c0,1.86-2.51,3.37-5.61,3.37Z"/></g></g></svg>